<svg width="1600" height="1100" viewBox="0 0 1600 1100" fill="none" xmlns="http://www.w3.org/2000/svg">
  <defs>
    <linearGradient id="bg" x1="210" y1="131" x2="1280" y2="935" gradientUnits="userSpaceOnUse">
      <stop stop-color="#FFF5EC"/>
      <stop offset="1" stop-color="#F4F8FD"/>
    </linearGradient>
    <linearGradient id="card" x1="449" y1="249" x2="1088" y2="825" gradientUnits="userSpaceOnUse">
      <stop stop-color="#363B49"/>
      <stop offset="1" stop-color="#1A1F2B"/>
    </linearGradient>
    <linearGradient id="accent" x1="539" y1="305" x2="1119" y2="802" gradientUnits="userSpaceOnUse">
      <stop stop-color="#FFB168"/>
      <stop offset="1" stop-color="#FF6A13"/>
    </linearGradient>
  </defs>
  <rect width="1600" height="1100" rx="52" fill="url(#bg)"/>
  <circle cx="1310" cy="183" r="194" fill="#FFF0E0"/>
  <circle cx="267" cy="866" r="228" fill="#EFF5FE"/>
  <path d="M169 273H1432" stroke="#F2DDCC" stroke-width="8" stroke-dasharray="14 18"/>
  <path d="M164 829H1423" stroke="#E2ECF8" stroke-width="8" stroke-dasharray="14 18"/>
  <rect x="414" y="224" width="772" height="596" rx="44" fill="url(#card)"/>
  <rect x="489" y="300" width="385" height="196" rx="28" fill="#F6F8FC"/>
  <path d="M547 422H792" stroke="#FF7A1C" stroke-width="16" stroke-linecap="round"/>
  <path d="M547 382H690" stroke="#E5EAF3" stroke-width="16" stroke-linecap="round"/>
  <rect x="912" y="300" width="198" height="196" rx="28" fill="#2A3040"/>
  <circle cx="1011" cy="398" r="65" fill="url(#accent)"/>
  <path d="M1011 357V398L1045 419" stroke="white" stroke-width="14" stroke-linecap="round" stroke-linejoin="round"/>
  <rect x="489" y="542" width="621" height="203" rx="30" fill="#252A38"/>
  <rect x="543" y="594" width="109" height="109" rx="20" fill="#FFF3E8"/>
  <rect x="683" y="594" width="109" height="109" rx="20" fill="#FFF3E8"/>
  <rect x="823" y="594" width="109" height="109" rx="20" fill="#FFF3E8"/>
  <rect x="963" y="594" width="109" height="109" rx="20" fill="#FFF3E8"/>
  <path d="M598 627V668" stroke="#FF7A1C" stroke-width="12" stroke-linecap="round"/>
  <path d="M577 648H619" stroke="#FF7A1C" stroke-width="12" stroke-linecap="round"/>
  <path d="M719 621C698 621 680 639 680 660C680 681 698 699 719 699C740 699 758 681 758 660C758 639 740 621 719 621Z" stroke="#FF7A1C" stroke-width="12"/>
  <path d="M861 625L887 649L860 675L834 649L861 625Z" stroke="#FF7A1C" stroke-width="12" stroke-linejoin="round"/>
  <path d="M997 625L1041 698H953L997 625Z" stroke="#FF7A1C" stroke-width="12" stroke-linejoin="round"/>
  <path d="M318 549H442" stroke="#FF8B28" stroke-width="18" stroke-linecap="round"/>
  <path d="M1158 549H1282" stroke="#FF8B28" stroke-width="18" stroke-linecap="round"/>
  <circle cx="302" cy="549" r="26" fill="#FF8B28"/>
  <circle cx="1298" cy="549" r="26" fill="#FF8B28"/>
  <path d="M577 170V224" stroke="#D8E3F2" stroke-width="12" stroke-linecap="round"/>
  <path d="M1022 820V909" stroke="#FFD6B0" stroke-width="12" stroke-linecap="round"/>
  <rect x="1148" y="699" width="178" height="127" rx="28" fill="#FFFFFF"/>
  <rect x="1181" y="734" width="112" height="18" rx="9" fill="#FF8C2A"/>
  <rect x="1181" y="770" width="86" height="18" rx="9" fill="#E5ECF6"/>
</svg>
