<svg width="1600" height="1100" viewBox="0 0 1600 1100" fill="none" xmlns="http://www.w3.org/2000/svg">
  <defs>
    <linearGradient id="bg" x1="201" y1="97" x2="1324" y2="972" gradientUnits="userSpaceOnUse">
      <stop stop-color="#FFF4E8"/>
      <stop offset="1" stop-color="#F5F8FD"/>
    </linearGradient>
    <linearGradient id="screen" x1="406" y1="244" x2="1174" y2="812" gradientUnits="userSpaceOnUse">
      <stop stop-color="#313746"/>
      <stop offset="1" stop-color="#191E29"/>
    </linearGradient>
  </defs>
  <rect width="1600" height="1100" rx="52" fill="url(#bg)"/>
  <circle cx="1288" cy="210" r="188" fill="#FFF1E2"/>
  <circle cx="273" cy="863" r="248" fill="#EFF5FE"/>
  <rect x="378" y="210" width="844" height="624" rx="46" fill="url(#screen)"/>
  <rect x="456" y="288" width="688" height="468" rx="30" fill="#F8FAFD"/>
  <rect x="524" y="366" width="188" height="228" rx="24" fill="#242A38"/>
  <path d="M582 552V454" stroke="#FF8B28" stroke-width="18" stroke-linecap="round"/>
  <path d="M542 495H622" stroke="#FF8B28" stroke-width="18" stroke-linecap="round"/>
  <path d="M756 430H1059" stroke="#E2E9F4" stroke-width="20" stroke-linecap="round"/>
  <path d="M756 496H1036" stroke="#FF7A1C" stroke-width="20" stroke-linecap="round"/>
  <path d="M756 562H985" stroke="#E2E9F4" stroke-width="20" stroke-linecap="round"/>
  <rect x="758" y="618" width="146" height="58" rx="20" fill="#FFF0E2"/>
  <rect x="923" y="618" width="163" height="58" rx="20" fill="#242A38"/>
  <path d="M1237 346L1354 285" stroke="#FFD8B5" stroke-width="16" stroke-linecap="round"/>
  <path d="M1237 693L1347 774" stroke="#E4EDF8" stroke-width="16" stroke-linecap="round"/>
  <circle cx="1357" cy="282" r="24" fill="#FF8B28"/>
  <circle cx="1350" cy="777" r="24" fill="#2C3140"/>
  <rect x="248" y="303" width="96" height="305" rx="28" fill="#FFFFFF"/>
  <rect x="277" y="341" width="38" height="38" rx="14" fill="#FF8B28"/>
  <rect x="277" y="399" width="38" height="38" rx="14" fill="#E6EDF7"/>
  <rect x="277" y="457" width="38" height="38" rx="14" fill="#E6EDF7"/>
  <rect x="277" y="515" width="38" height="38" rx="14" fill="#E6EDF7"/>
  <path d="M580 833V900" stroke="#FFD5B0" stroke-width="14" stroke-linecap="round"/>
  <path d="M993 833V934" stroke="#DDE8F5" stroke-width="14" stroke-linecap="round"/>
</svg>
