<svg width="1600" height="1100" viewBox="0 0 1600 1100" fill="none" xmlns="http://www.w3.org/2000/svg">
  <defs>
    <linearGradient id="bg" x1="235" y1="120" x2="1310" y2="967" gradientUnits="userSpaceOnUse">
      <stop stop-color="#FFF5EB"/>
      <stop offset="1" stop-color="#F3F8FD"/>
    </linearGradient>
    <linearGradient id="accent" x1="520" y1="280" x2="1145" y2="811" gradientUnits="userSpaceOnUse">
      <stop stop-color="#FFB168"/>
      <stop offset="1" stop-color="#FF6A13"/>
    </linearGradient>
  </defs>
  <rect width="1600" height="1100" rx="52" fill="url(#bg)"/>
  <circle cx="1276" cy="190" r="198" fill="#FFF0DF"/>
  <circle cx="269" cy="866" r="240" fill="#EEF4FD"/>
  <rect x="352" y="264" width="896" height="574" rx="46" fill="#FFFFFF"/>
  <rect x="432" y="340" width="344" height="422" rx="34" fill="#252B39"/>
  <circle cx="603" cy="446" r="88" fill="url(#accent)"/>
  <path d="M603 394C575 394 552 417 552 445V476C552 494 566 508 584 508H622C640 508 654 494 654 476V445C654 417 631 394 603 394Z" stroke="white" stroke-width="16" stroke-linejoin="round"/>
  <path d="M528 511V468C528 427 562 394 603 394C644 394 678 427 678 468V511" stroke="white" stroke-width="16" stroke-linecap="round"/>
  <rect x="520" y="584" width="166" height="20" rx="10" fill="#FFD8B5"/>
  <rect x="520" y="626" width="132" height="20" rx="10" fill="#E0E8F4"/>
  <rect x="824" y="340" width="344" height="182" rx="30" fill="#F8FAFD"/>
  <rect x="872" y="390" width="184" height="18" rx="9" fill="#FF8C2A"/>
  <rect x="872" y="430" width="248" height="18" rx="9" fill="#E5ECF6"/>
  <rect x="824" y="580" width="344" height="182" rx="30" fill="#F8FAFD"/>
  <path d="M885 674L944 617L1007 657L1091 609" stroke="#FF7A1C" stroke-width="16" stroke-linecap="round" stroke-linejoin="round"/>
  <circle cx="885" cy="674" r="14" fill="#FF7A1C"/>
  <circle cx="944" cy="617" r="14" fill="#FF7A1C"/>
  <circle cx="1007" cy="657" r="14" fill="#FF7A1C"/>
  <circle cx="1091" cy="609" r="14" fill="#FF7A1C"/>
  <rect x="266" y="346" width="86" height="208" rx="28" fill="#FFFFFF"/>
  <rect x="292" y="384" width="34" height="34" rx="12" fill="#FF8C2A"/>
  <rect x="292" y="438" width="34" height="34" rx="12" fill="#E3EAF5"/>
  <rect x="292" y="492" width="34" height="34" rx="12" fill="#E3EAF5"/>
  <path d="M1218 350L1340 290" stroke="#FFE1C6" stroke-width="16" stroke-linecap="round"/>
  <path d="M1218 742L1328 807" stroke="#DDE8F4" stroke-width="16" stroke-linecap="round"/>
  <circle cx="1342" cy="289" r="24" fill="#FF8C2A"/>
  <circle cx="1330" cy="809" r="24" fill="#2C3140"/>
</svg>
